<svg width="1728" height="144" viewBox="0 0 1728 144" fill="none" xmlns="http://www.w3.org/2000/svg">
<mask id="path-1-inside-1_254_1478" fill="white">
<path d="M0 0H1728V144H0V0Z"/>
</mask>
<path d="M0 0H1728V144H0V0Z" fill="#080708"/>
<path d="M0 0V1H1728V0V-1H0V0ZM1728 144V143H0V144V145H1728V144Z" fill="#E6E8E6" mask="url(#path-1-inside-1_254_1478)"/>
<rect x="251.095" y="25.7265" width="9.23145" height="9.23145" rx="4.61572" fill="#DF2935"/>
<rect x="251.095" y="25.7265" width="9.23145" height="9.23145" rx="4.61572" stroke="#DF2935" stroke-width="3.45298"/>
<rect x="263.78" y="25.7265" width="9.23145" height="9.23145" rx="4.61572" fill="#DF2935"/>
<rect x="263.78" y="25.7265" width="9.23145" height="9.23145" rx="4.61572" stroke="#DF2935" stroke-width="3.45298"/>
<rect x="276.464" y="25.7265" width="9.23145" height="9.23145" rx="4.61572" fill="#DF2935"/>
<rect x="276.464" y="25.7265" width="9.23145" height="9.23145" rx="4.61572" stroke="#DF2935" stroke-width="3.45298"/>
<rect x="225.726" y="38.4109" width="9.23145" height="9.23145" rx="4.61572" fill="#DF2935"/>
<rect x="225.726" y="38.4109" width="9.23145" height="9.23145" rx="4.61572" stroke="#DF2935" stroke-width="3.45298"/>
<rect x="238.411" y="38.4109" width="9.23145" height="9.23145" rx="4.61572" fill="#DF2935"/>
<rect x="238.411" y="38.4109" width="9.23145" height="9.23145" rx="4.61572" stroke="#DF2935" stroke-width="3.45298"/>
<rect x="251.095" y="38.4109" width="9.23145" height="9.23145" rx="4.61572" fill="#DF2935"/>
<rect x="251.095" y="38.4109" width="9.23145" height="9.23145" rx="4.61572" stroke="#DF2935" stroke-width="3.45298"/>
<rect x="263.78" y="38.4109" width="9.23145" height="9.23145" rx="4.61572" fill="#DF2935"/>
<rect x="263.78" y="38.4109" width="9.23145" height="9.23145" rx="4.61572" stroke="#DF2935" stroke-width="3.45298"/>
<rect x="276.464" y="38.4109" width="9.23145" height="9.23145" rx="4.61572" fill="#DF2935"/>
<rect x="276.464" y="38.4109" width="9.23145" height="9.23145" rx="4.61572" stroke="#DF2935" stroke-width="3.45298"/>
<rect x="289.149" y="38.4109" width="9.23145" height="9.23145" rx="4.61572" fill="#DF2935"/>
<rect x="289.149" y="38.4109" width="9.23145" height="9.23145" rx="4.61572" stroke="#DF2935" stroke-width="3.45298"/>
<rect x="301.833" y="38.4109" width="9.23145" height="9.23145" rx="4.61572" fill="#DF2935"/>
<rect x="301.833" y="38.4109" width="9.23145" height="9.23145" rx="4.61572" stroke="#DF2935" stroke-width="3.45298"/>
<rect x="225.726" y="51.0954" width="9.23145" height="9.23145" rx="4.61572" fill="#DF2935"/>
<rect x="225.726" y="51.0954" width="9.23145" height="9.23145" rx="4.61572" stroke="#DF2935" stroke-width="3.45298"/>
<rect x="238.411" y="51.0954" width="9.23145" height="9.23145" rx="4.61572" fill="#DF2935"/>
<rect x="238.411" y="51.0954" width="9.23145" height="9.23145" rx="4.61572" stroke="#DF2935" stroke-width="3.45298"/>
<rect x="251.095" y="51.0954" width="9.23145" height="9.23145" rx="4.61572" fill="#DF2935"/>
<rect x="251.095" y="51.0954" width="9.23145" height="9.23145" rx="4.61572" stroke="#DF2935" stroke-width="3.45298"/>
<rect x="263.78" y="51.0954" width="9.23145" height="9.23145" rx="4.61572" fill="#DF2935"/>
<rect x="263.78" y="51.0954" width="9.23145" height="9.23145" rx="4.61572" stroke="#DF2935" stroke-width="3.45298"/>
<rect x="276.464" y="51.0954" width="9.23145" height="9.23145" rx="4.61572" fill="#DF2935"/>
<rect x="276.464" y="51.0954" width="9.23145" height="9.23145" rx="4.61572" stroke="#DF2935" stroke-width="3.45298"/>
<rect x="289.149" y="51.0954" width="9.23145" height="9.23145" rx="4.61572" fill="#DF2935"/>
<rect x="289.149" y="51.0954" width="9.23145" height="9.23145" rx="4.61572" stroke="#DF2935" stroke-width="3.45298"/>
<rect x="301.833" y="51.0954" width="9.23145" height="9.23145" rx="4.61572" fill="#DF2935"/>
<rect x="301.833" y="51.0954" width="9.23145" height="9.23145" rx="4.61572" stroke="#DF2935" stroke-width="3.45298"/>
<rect x="314.518" y="51.0954" width="9.23145" height="9.23145" rx="4.61572" fill="#DF2935"/>
<rect x="314.518" y="51.0954" width="9.23145" height="9.23145" rx="4.61572" stroke="#DF2935" stroke-width="3.45298"/>
<rect x="225.726" y="63.7798" width="9.23145" height="9.23145" rx="4.61572" fill="#DF2935"/>
<rect x="225.726" y="63.7798" width="9.23145" height="9.23145" rx="4.61572" stroke="#DF2935" stroke-width="3.45298"/>
<rect x="238.411" y="63.7798" width="9.23145" height="9.23145" rx="4.61572" fill="#DF2935"/>
<rect x="238.411" y="63.7798" width="9.23145" height="9.23145" rx="4.61572" stroke="#DF2935" stroke-width="3.45298"/>
<rect x="251.095" y="63.7798" width="9.23145" height="9.23145" rx="4.61572" fill="#DF2935"/>
<rect x="251.095" y="63.7798" width="9.23145" height="9.23145" rx="4.61572" stroke="#DF2935" stroke-width="3.45298"/>
<rect x="263.78" y="63.7798" width="9.23145" height="9.23145" rx="4.61572" fill="#DF2935"/>
<rect x="263.78" y="63.7798" width="9.23145" height="9.23145" rx="4.61572" stroke="#DF2935" stroke-width="3.45298"/>
<rect x="276.464" y="63.7798" width="9.23145" height="9.23145" rx="4.61572" fill="#DF2935"/>
<rect x="276.464" y="63.7798" width="9.23145" height="9.23145" rx="4.61572" stroke="#DF2935" stroke-width="3.45298"/>
<rect x="289.149" y="63.7798" width="9.23145" height="9.23145" rx="4.61572" fill="#DF2935"/>
<rect x="289.149" y="63.7798" width="9.23145" height="9.23145" rx="4.61572" stroke="#DF2935" stroke-width="3.45298"/>
<rect x="301.833" y="63.7798" width="9.23145" height="9.23145" rx="4.61572" fill="#DF2935"/>
<rect x="301.833" y="63.7798" width="9.23145" height="9.23145" rx="4.61572" stroke="#DF2935" stroke-width="3.45298"/>
<rect x="251.095" y="76.4642" width="9.23145" height="9.23145" rx="4.61572" fill="#DF2935"/>
<rect x="251.095" y="76.4642" width="9.23145" height="9.23145" rx="4.61572" stroke="#DF2935" stroke-width="3.45298"/>
<rect x="263.78" y="76.4642" width="9.23145" height="9.23145" rx="4.61572" fill="#DF2935"/>
<rect x="263.78" y="76.4642" width="9.23145" height="9.23145" rx="4.61572" stroke="#DF2935" stroke-width="3.45298"/>
<rect x="276.464" y="76.4642" width="9.23145" height="9.23145" rx="4.61572" fill="#DF2935"/>
<rect x="276.464" y="76.4642" width="9.23145" height="9.23145" rx="4.61572" stroke="#DF2935" stroke-width="3.45298"/>
<rect x="289.149" y="76.4642" width="9.23145" height="9.23145" rx="4.61572" fill="#DF2935"/>
<rect x="289.149" y="76.4642" width="9.23145" height="9.23145" rx="4.61572" stroke="#DF2935" stroke-width="3.45298"/>
<rect x="263.78" y="89.1486" width="9.23145" height="9.23145" rx="4.61572" fill="#DF2935"/>
<rect x="263.78" y="89.1486" width="9.23145" height="9.23145" rx="4.61572" stroke="#DF2935" stroke-width="3.45298"/>
<rect x="276.464" y="89.1486" width="9.23145" height="9.23145" rx="4.61572" fill="#DF2935"/>
<rect x="276.464" y="89.1486" width="9.23145" height="9.23145" rx="4.61572" stroke="#DF2935" stroke-width="3.45298"/>
<rect x="289.149" y="89.1486" width="9.23145" height="9.23145" rx="4.61572" fill="#DF2935"/>
<rect x="289.149" y="89.1486" width="9.23145" height="9.23145" rx="4.61572" stroke="#DF2935" stroke-width="3.45298"/>
<path d="M225.715 119.107V106.876H229.29V116.045H234.524V119.107H225.715ZM241.275 119.397C237.477 119.397 235.083 116.695 235.083 113.034C235.083 109.374 237.477 106.654 241.275 106.654C245.072 106.654 247.501 109.374 247.501 113.034C247.501 116.695 245.072 119.397 241.275 119.397ZM241.292 116.541C243.003 116.541 243.875 115.036 243.875 113.034C243.875 111.033 243.003 109.51 241.292 109.51C239.581 109.51 238.709 111.033 238.709 113.034C238.709 115.036 239.581 116.541 241.292 116.541ZM248.833 119.107V106.876H252.408L256.411 113.753H256.445V106.876H259.9V119.107H256.205L252.323 112.179H252.288V119.107H248.833ZM261.72 119.107V106.876H267.365C270.889 106.876 273.335 109.134 273.335 113.017C273.335 116.917 271.008 119.107 267.211 119.107H261.72ZM265.295 116.147H266.92C268.562 116.147 269.708 115.087 269.708 113.017C269.708 110.999 268.631 109.835 266.92 109.835H265.295V116.147ZM280.387 119.397C276.59 119.397 274.195 116.695 274.195 113.034C274.195 109.374 276.59 106.654 280.387 106.654C284.185 106.654 286.614 109.374 286.614 113.034C286.614 116.695 284.185 119.397 280.387 119.397ZM280.404 116.541C282.115 116.541 282.987 115.036 282.987 113.034C282.987 111.033 282.115 109.51 280.404 109.51C278.694 109.51 277.821 111.033 277.821 113.034C277.821 115.036 278.694 116.541 280.404 116.541ZM287.945 119.107V106.876H291.52L295.523 113.753H295.557V106.876H299.013V119.107H295.318L291.435 112.179H291.401V119.107H287.945ZM308.571 119.397C306.792 119.397 305.544 119.055 304.654 118.337C303.696 117.567 303.2 116.421 303.2 115.001H306.433C306.467 116.079 307.083 116.849 308.417 116.849C309.495 116.849 310.025 116.25 310.025 115.514C310.025 114.591 309.29 114.232 308.178 114.232H307.494V112.008H308.075C309.153 112.008 309.82 111.614 309.82 110.81C309.82 110.126 309.307 109.682 308.4 109.682C307.22 109.682 306.792 110.4 306.707 111.187H303.559C303.559 108.86 305.355 107.15 308.451 107.15C311.188 107.15 313.138 108.399 313.138 110.588C313.138 111.683 312.505 112.367 311.565 112.812V112.846C312.642 113.291 313.446 114.146 313.446 115.668C313.446 118.268 311.086 119.397 308.571 119.397ZM314.402 119.107C314.402 117.43 314.744 116.524 315.736 115.617C316.882 114.574 318.576 113.479 319.859 112.607C320.509 112.162 320.885 111.683 320.885 111.05C320.885 110.314 320.406 109.835 319.482 109.835C318.918 109.835 318.525 109.989 318.251 110.349C317.943 110.742 317.806 111.187 317.806 111.957H314.59C314.59 110.571 314.727 109.972 315.172 109.185C315.822 108.022 317.31 107.15 319.551 107.15C322.664 107.15 324.255 108.775 324.255 110.913C324.255 111.957 323.964 112.795 323.297 113.445C322.134 114.574 320.646 115.258 319.397 116.25V116.284H324.186V119.107H314.402Z" fill="#E6E8E6"/>
<g clip-path="url(#clip0_254_1478)">
<path d="M822.09 76.16L822.594 74.696H829.602L830.154 76.16H822.09ZM826.146 66.032L821.082 80H818.994L825.042 64.208H827.466L833.514 80H831.186L826.194 66.032H826.146ZM842.042 80.192C841.226 80.192 840.506 80.08 839.882 79.856C839.274 79.616 838.77 79.28 838.37 78.848C837.97 78.416 837.69 77.912 837.53 77.336H837.506C837.506 77.64 837.506 77.96 837.506 78.296C837.522 78.616 837.538 78.92 837.554 79.208C837.57 79.496 837.586 79.76 837.602 80H835.73V63.392H837.602V68.912C837.586 69.6 837.57 70.288 837.554 70.976H837.578C837.738 70.352 838.018 69.816 838.418 69.368C838.818 68.92 839.322 68.576 839.93 68.336C840.554 68.08 841.25 67.952 842.018 67.952C843.058 67.952 843.962 68.192 844.73 68.672C845.498 69.136 846.082 69.816 846.482 70.712C846.882 71.592 847.082 72.64 847.082 73.856C847.082 75.152 846.874 76.28 846.458 77.24C846.058 78.184 845.474 78.912 844.706 79.424C843.954 79.936 843.066 80.192 842.042 80.192ZM841.562 78.488C842.314 78.488 842.962 78.304 843.506 77.936C844.05 77.552 844.466 77.024 844.754 76.352C845.042 75.664 845.186 74.848 845.186 73.904C845.186 73.04 845.042 72.288 844.754 71.648C844.482 71.008 844.074 70.52 843.53 70.184C843.002 69.832 842.37 69.656 841.634 69.656C840.818 69.656 840.106 69.832 839.498 70.184C838.89 70.536 838.418 71.04 838.082 71.696C837.762 72.352 837.602 73.136 837.602 74.048V74.744C837.602 75.496 837.77 76.16 838.106 76.736C838.442 77.296 838.906 77.728 839.498 78.032C840.09 78.336 840.778 78.488 841.562 78.488ZM854.88 80.192C853.728 80.192 852.728 79.952 851.88 79.472C851.048 78.976 850.408 78.272 849.96 77.36C849.512 76.432 849.288 75.344 849.288 74.096C849.288 72.848 849.512 71.76 849.96 70.832C850.408 69.904 851.056 69.192 851.904 68.696C852.752 68.2 853.744 67.952 854.88 67.952C856.032 67.952 857.024 68.2 857.856 68.696C858.704 69.192 859.352 69.904 859.8 70.832C860.248 71.76 860.472 72.848 860.472 74.096C860.472 75.344 860.248 76.432 859.8 77.36C859.352 78.272 858.704 78.976 857.856 79.472C857.008 79.952 856.016 80.192 854.88 80.192ZM854.88 78.488C855.648 78.488 856.304 78.312 856.848 77.96C857.408 77.608 857.832 77.104 858.12 76.448C858.424 75.776 858.576 74.984 858.576 74.072C858.576 73.16 858.424 72.376 858.12 71.72C857.832 71.048 857.408 70.536 856.848 70.184C856.304 69.832 855.648 69.656 854.88 69.656C854.128 69.656 853.472 69.832 852.912 70.184C852.368 70.536 851.944 71.048 851.64 71.72C851.336 72.392 851.184 73.184 851.184 74.096C851.184 74.992 851.336 75.776 851.64 76.448C851.944 77.104 852.368 77.608 852.912 77.96C853.456 78.312 854.112 78.488 854.88 78.488ZM867.638 80.192C866.694 80.192 865.87 80.008 865.166 79.64C864.462 79.272 863.926 78.744 863.558 78.056C863.19 77.368 863.006 76.552 863.006 75.608V68.144H864.902V75.296C864.902 75.952 865.03 76.52 865.286 77C865.542 77.464 865.918 77.832 866.414 78.104C866.91 78.36 867.494 78.488 868.166 78.488C868.998 78.488 869.726 78.296 870.35 77.912C870.974 77.528 871.446 76.976 871.766 76.256C872.102 75.52 872.27 74.664 872.27 73.688V68.144H874.166V80H872.27C872.334 79.024 872.374 77.904 872.39 76.64H872.366C872.19 77.376 871.902 78.008 871.502 78.536C871.118 79.064 870.598 79.472 869.942 79.76C869.302 80.048 868.534 80.192 867.638 80.192ZM881.747 80.096C880.403 80.096 879.411 79.712 878.771 78.944C878.147 78.16 877.835 77.096 877.835 75.752V69.8H875.963V68.144H877.451C877.643 68.144 877.779 68.088 877.859 67.976C877.955 67.848 878.011 67.632 878.027 67.328L878.099 65.456H879.707V68.144H883.763V69.8H879.707V75.632C879.707 76.24 879.779 76.752 879.923 77.168C880.067 77.568 880.299 77.88 880.619 78.104C880.955 78.328 881.395 78.44 881.939 78.44C882.307 78.44 882.651 78.416 882.971 78.368C883.291 78.32 883.523 78.272 883.667 78.224V79.832C883.475 79.896 883.211 79.952 882.875 80C882.539 80.064 882.163 80.096 881.747 80.096Z" fill="white"/>
<path d="M925.383 80.24C923.959 80.24 922.695 79.92 921.591 79.28C920.503 78.624 919.655 77.688 919.047 76.472C918.455 75.24 918.159 73.792 918.159 72.128C918.159 70.448 918.455 69 919.047 67.784C919.655 66.552 920.503 65.608 921.591 64.952C922.679 64.296 923.943 63.968 925.383 63.968C926.615 63.968 927.703 64.216 928.647 64.712C929.607 65.208 930.351 65.912 930.879 66.824C931.423 67.72 931.695 68.776 931.695 69.992C931.695 70.248 931.687 70.512 931.671 70.784H929.847C929.847 70.592 929.847 70.368 929.847 70.112C929.847 69.248 929.655 68.488 929.271 67.832C928.887 67.176 928.359 66.672 927.687 66.32C927.015 65.968 926.247 65.792 925.383 65.792C924.359 65.792 923.447 66.048 922.647 66.56C921.847 67.056 921.223 67.784 920.775 68.744C920.343 69.688 920.127 70.816 920.127 72.128C920.127 73.408 920.351 74.528 920.799 75.488C921.263 76.432 921.895 77.16 922.695 77.672C923.495 78.168 924.391 78.416 925.383 78.416C926.247 78.416 927.023 78.248 927.711 77.912C928.399 77.576 928.935 77.096 929.319 76.472C929.719 75.832 929.919 75.096 929.919 74.264C929.919 74.12 929.919 73.976 929.919 73.832H931.767C931.767 74.008 931.767 74.184 931.767 74.36C931.767 75.528 931.495 76.56 930.951 77.456C930.407 78.352 929.647 79.04 928.671 79.52C927.711 80 926.615 80.24 925.383 80.24ZM939.665 80.192C938.513 80.192 937.513 79.952 936.665 79.472C935.833 78.976 935.193 78.272 934.745 77.36C934.297 76.432 934.073 75.344 934.073 74.096C934.073 72.848 934.297 71.76 934.745 70.832C935.193 69.904 935.841 69.192 936.689 68.696C937.537 68.2 938.529 67.952 939.665 67.952C940.817 67.952 941.809 68.2 942.641 68.696C943.489 69.192 944.137 69.904 944.585 70.832C945.033 71.76 945.257 72.848 945.257 74.096C945.257 75.344 945.033 76.432 944.585 77.36C944.137 78.272 943.489 78.976 942.641 79.472C941.793 79.952 940.801 80.192 939.665 80.192ZM939.665 78.488C940.433 78.488 941.089 78.312 941.633 77.96C942.193 77.608 942.617 77.104 942.905 76.448C943.209 75.776 943.361 74.984 943.361 74.072C943.361 73.16 943.209 72.376 942.905 71.72C942.617 71.048 942.193 70.536 941.633 70.184C941.089 69.832 940.433 69.656 939.665 69.656C938.913 69.656 938.257 69.832 937.697 70.184C937.153 70.536 936.729 71.048 936.425 71.72C936.121 72.392 935.969 73.184 935.969 74.096C935.969 74.992 936.121 75.776 936.425 76.448C936.729 77.104 937.153 77.608 937.697 77.96C938.241 78.312 938.897 78.488 939.665 78.488ZM947.911 68.144H949.807L949.735 71.48H949.759C949.935 70.76 950.191 70.144 950.527 69.632C950.863 69.104 951.295 68.696 951.823 68.408C952.367 68.104 953.015 67.952 953.767 67.952C954.583 67.952 955.271 68.136 955.831 68.504C956.407 68.856 956.831 69.368 957.103 70.04C957.391 70.696 957.535 71.488 957.535 72.416C957.535 73.152 957.495 73.888 957.415 74.624H955.711C955.775 74.064 955.807 73.456 955.807 72.8C955.807 71.744 955.607 70.96 955.207 70.448C954.807 69.92 954.175 69.656 953.311 69.656C952.591 69.656 951.959 69.872 951.415 70.304C950.887 70.72 950.487 71.304 950.215 72.056C949.943 72.808 949.807 73.672 949.807 74.648V80H947.911V68.144ZM965.185 80.192C964.065 80.192 963.089 79.944 962.257 79.448C961.441 78.952 960.809 78.256 960.361 77.36C959.929 76.448 959.713 75.384 959.713 74.168C959.713 72.888 959.937 71.784 960.385 70.856C960.833 69.912 961.465 69.192 962.281 68.696C963.097 68.2 964.057 67.952 965.161 67.952C966.201 67.952 967.097 68.168 967.849 68.6C968.601 69.032 969.169 69.664 969.553 70.496C969.953 71.328 970.153 72.344 970.153 73.544V74.432H960.385L960.409 73.064H968.401V72.92C968.401 72.2 968.273 71.592 968.017 71.096C967.761 70.584 967.393 70.2 966.913 69.944C966.449 69.688 965.873 69.56 965.185 69.56C964.449 69.56 963.809 69.736 963.265 70.088C962.737 70.424 962.329 70.936 962.041 71.624C961.753 72.312 961.609 73.16 961.609 74.168C961.609 75.064 961.753 75.848 962.041 76.52C962.345 77.192 962.761 77.704 963.289 78.056C963.833 78.408 964.473 78.584 965.209 78.584C965.817 78.584 966.345 78.48 966.793 78.272C967.257 78.064 967.625 77.768 967.897 77.384C968.185 76.984 968.353 76.512 968.401 75.968H970.153C970.121 76.832 969.889 77.584 969.457 78.224C969.041 78.848 968.465 79.336 967.729 79.688C966.993 80.024 966.145 80.192 965.185 80.192ZM984.821 80.24C983.397 80.24 982.133 79.92 981.029 79.28C979.941 78.624 979.093 77.688 978.485 76.472C977.893 75.24 977.597 73.792 977.597 72.128C977.597 70.448 977.893 69 978.485 67.784C979.093 66.552 979.941 65.608 981.029 64.952C982.117 64.296 983.381 63.968 984.821 63.968C986.053 63.968 987.141 64.216 988.085 64.712C989.045 65.208 989.789 65.912 990.317 66.824C990.861 67.72 991.133 68.776 991.133 69.992C991.133 70.248 991.125 70.512 991.109 70.784H989.285C989.285 70.592 989.285 70.368 989.285 70.112C989.285 69.248 989.093 68.488 988.709 67.832C988.325 67.176 987.797 66.672 987.125 66.32C986.453 65.968 985.685 65.792 984.821 65.792C983.797 65.792 982.885 66.048 982.085 66.56C981.285 67.056 980.661 67.784 980.213 68.744C979.781 69.688 979.565 70.816 979.565 72.128C979.565 73.408 979.789 74.528 980.237 75.488C980.701 76.432 981.333 77.16 982.133 77.672C982.933 78.168 983.829 78.416 984.821 78.416C985.685 78.416 986.461 78.248 987.149 77.912C987.837 77.576 988.373 77.096 988.757 76.472C989.157 75.832 989.357 75.096 989.357 74.264C989.357 74.12 989.357 73.976 989.357 73.832H991.205C991.205 74.008 991.205 74.184 991.205 74.36C991.205 75.528 990.933 76.56 990.389 77.456C989.845 78.352 989.085 79.04 988.109 79.52C987.149 80 986.053 80.24 984.821 80.24ZM999.102 80.192C997.95 80.192 996.95 79.952 996.102 79.472C995.27 78.976 994.63 78.272 994.182 77.36C993.734 76.432 993.51 75.344 993.51 74.096C993.51 72.848 993.734 71.76 994.182 70.832C994.63 69.904 995.278 69.192 996.126 68.696C996.974 68.2 997.966 67.952 999.102 67.952C1000.25 67.952 1001.25 68.2 1002.08 68.696C1002.93 69.192 1003.57 69.904 1004.02 70.832C1004.47 71.76 1004.69 72.848 1004.69 74.096C1004.69 75.344 1004.47 76.432 1004.02 77.36C1003.57 78.272 1002.93 78.976 1002.08 79.472C1001.23 79.952 1000.24 80.192 999.102 80.192ZM999.102 78.488C999.87 78.488 1000.53 78.312 1001.07 77.96C1001.63 77.608 1002.05 77.104 1002.34 76.448C1002.65 75.776 1002.8 74.984 1002.8 74.072C1002.8 73.16 1002.65 72.376 1002.34 71.72C1002.05 71.048 1001.63 70.536 1001.07 70.184C1000.53 69.832 999.87 69.656 999.102 69.656C998.35 69.656 997.694 69.832 997.134 70.184C996.59 70.536 996.166 71.048 995.862 71.72C995.558 72.392 995.406 73.184 995.406 74.096C995.406 74.992 995.558 75.776 995.862 76.448C996.166 77.104 996.59 77.608 997.134 77.96C997.678 78.312 998.334 78.488 999.102 78.488ZM1007.35 68.144H1009.24L1009.17 71.24H1009.2C1009.52 70.2 1010.07 69.392 1010.85 68.816C1011.64 68.24 1012.67 67.952 1013.95 67.952C1015.39 67.952 1016.51 68.352 1017.31 69.152C1018.12 69.952 1018.53 71.04 1018.53 72.416V80H1016.64V72.776C1016.64 72.136 1016.52 71.584 1016.28 71.12C1016.05 70.64 1015.68 70.28 1015.17 70.04C1014.68 69.784 1014.05 69.656 1013.3 69.656C1012.48 69.656 1011.77 69.832 1011.16 70.184C1010.56 70.52 1010.08 71.016 1009.75 71.672C1009.41 72.328 1009.24 73.104 1009.24 74V80H1007.35V68.144ZM1020.03 68.144H1022.24L1026.08 78.152H1026.15L1030.04 68.144H1032.05L1027.18 80H1024.88L1020.03 68.144ZM1034.26 68.144H1036.15V80H1034.26V68.144ZM1034.19 64.304H1036.2V66.704H1034.19V64.304ZM1044.19 80.192C1043.1 80.192 1042.16 79.952 1041.36 79.472C1040.57 78.976 1039.96 78.272 1039.53 77.36C1039.12 76.432 1038.91 75.336 1038.91 74.072C1038.91 72.808 1039.12 71.72 1039.56 70.808C1039.99 69.88 1040.61 69.176 1041.43 68.696C1042.24 68.2 1043.2 67.952 1044.31 67.952C1045.3 67.952 1046.16 68.152 1046.9 68.552C1047.64 68.936 1048.2 69.504 1048.58 70.256C1048.98 71.008 1049.18 71.896 1049.18 72.92H1047.43C1047.43 72.232 1047.3 71.648 1047.04 71.168C1046.79 70.688 1046.43 70.32 1045.96 70.064C1045.52 69.792 1044.97 69.656 1044.33 69.656C1043.61 69.656 1042.98 69.832 1042.44 70.184C1041.91 70.536 1041.5 71.048 1041.21 71.72C1040.94 72.376 1040.8 73.16 1040.8 74.072C1040.8 74.984 1040.94 75.776 1041.21 76.448C1041.5 77.104 1041.9 77.608 1042.41 77.96C1042.92 78.312 1043.53 78.488 1044.24 78.488C1044.89 78.488 1045.46 78.36 1045.94 78.104C1046.44 77.848 1046.81 77.48 1047.07 77C1047.32 76.52 1047.45 75.944 1047.45 75.272H1049.2C1049.2 76.28 1049 77.152 1048.6 77.888C1048.2 78.624 1047.62 79.192 1046.85 79.592C1046.1 79.992 1045.21 80.192 1044.19 80.192ZM1056.16 80.096C1054.81 80.096 1053.82 79.712 1053.18 78.944C1052.56 78.16 1052.25 77.096 1052.25 75.752V69.8H1050.37V68.144H1051.86C1052.05 68.144 1052.19 68.088 1052.27 67.976C1052.37 67.848 1052.42 67.632 1052.44 67.328L1052.51 65.456H1054.12V68.144H1058.17V69.8H1054.12V75.632C1054.12 76.24 1054.19 76.752 1054.33 77.168C1054.48 77.568 1054.71 77.88 1055.03 78.104C1055.37 78.328 1055.81 78.44 1056.35 78.44C1056.72 78.44 1057.06 78.416 1057.38 78.368C1057.7 78.32 1057.93 78.272 1058.08 78.224V79.832C1057.89 79.896 1057.62 79.952 1057.29 80C1056.95 80.064 1056.57 80.096 1056.16 80.096ZM1060.65 68.144H1062.54V80H1060.65V68.144ZM1060.58 64.304H1062.59V66.704H1060.58V64.304ZM1070.89 80.192C1069.74 80.192 1068.74 79.952 1067.89 79.472C1067.06 78.976 1066.42 78.272 1065.97 77.36C1065.52 76.432 1065.3 75.344 1065.3 74.096C1065.3 72.848 1065.52 71.76 1065.97 70.832C1066.42 69.904 1067.07 69.192 1067.92 68.696C1068.76 68.2 1069.76 67.952 1070.89 67.952C1072.04 67.952 1073.04 68.2 1073.87 68.696C1074.72 69.192 1075.36 69.904 1075.81 70.832C1076.26 71.76 1076.48 72.848 1076.48 74.096C1076.48 75.344 1076.26 76.432 1075.81 77.36C1075.36 78.272 1074.72 78.976 1073.87 79.472C1073.02 79.952 1072.03 80.192 1070.89 80.192ZM1070.89 78.488C1071.66 78.488 1072.32 78.312 1072.86 77.96C1073.42 77.608 1073.84 77.104 1074.13 76.448C1074.44 75.776 1074.59 74.984 1074.59 74.072C1074.59 73.16 1074.44 72.376 1074.13 71.72C1073.84 71.048 1073.42 70.536 1072.86 70.184C1072.32 69.832 1071.66 69.656 1070.89 69.656C1070.14 69.656 1069.48 69.832 1068.92 70.184C1068.38 70.536 1067.96 71.048 1067.65 71.72C1067.35 72.392 1067.2 73.184 1067.2 74.096C1067.2 74.992 1067.35 75.776 1067.65 76.448C1067.96 77.104 1068.38 77.608 1068.92 77.96C1069.47 78.312 1070.12 78.488 1070.89 78.488ZM1079.14 68.144H1081.03L1080.96 71.24H1080.99C1081.31 70.2 1081.86 69.392 1082.64 68.816C1083.43 68.24 1084.46 67.952 1085.74 67.952C1087.18 67.952 1088.3 68.352 1089.1 69.152C1089.91 69.952 1090.32 71.04 1090.32 72.416V80H1088.43V72.776C1088.43 72.136 1088.31 71.584 1088.07 71.12C1087.84 70.64 1087.47 70.28 1086.96 70.04C1086.47 69.784 1085.84 69.656 1085.09 69.656C1084.27 69.656 1083.56 69.832 1082.95 70.184C1082.35 70.52 1081.87 71.016 1081.54 71.672C1081.2 72.328 1081.03 73.104 1081.03 74V80H1079.14V68.144ZM1097.73 80.192C1096.55 80.192 1095.59 80.016 1094.85 79.664C1094.13 79.296 1093.61 78.808 1093.29 78.2C1092.99 77.576 1092.84 76.856 1092.84 76.04H1094.59C1094.59 76.6 1094.69 77.064 1094.9 77.432C1095.11 77.8 1095.44 78.088 1095.89 78.296C1096.35 78.488 1096.96 78.584 1097.71 78.584C1098.43 78.584 1099.03 78.504 1099.51 78.344C1100.01 78.184 1100.37 77.96 1100.61 77.672C1100.85 77.384 1100.97 77.024 1100.97 76.592C1100.97 76.192 1100.87 75.88 1100.66 75.656C1100.45 75.432 1100.11 75.264 1099.63 75.152C1099.15 75.024 1098.4 74.896 1097.37 74.768C1096.3 74.624 1095.45 74.456 1094.83 74.264C1094.21 74.056 1093.72 73.744 1093.37 73.328C1093.01 72.912 1092.84 72.32 1092.84 71.552C1092.84 70.848 1093.03 70.224 1093.41 69.68C1093.81 69.136 1094.38 68.712 1095.12 68.408C1095.85 68.104 1096.71 67.952 1097.69 67.952C1098.79 67.952 1099.69 68.112 1100.37 68.432C1101.06 68.752 1101.57 69.224 1101.89 69.848C1102.22 70.472 1102.39 71.248 1102.39 72.176H1100.64C1100.64 71.568 1100.53 71.072 1100.3 70.688C1100.09 70.304 1099.77 70.024 1099.34 69.848C1098.93 69.656 1098.39 69.56 1097.73 69.56C1097.13 69.56 1096.59 69.64 1096.13 69.8C1095.68 69.96 1095.33 70.184 1095.09 70.472C1094.85 70.744 1094.73 71.072 1094.73 71.456C1094.73 71.904 1094.84 72.248 1095.05 72.488C1095.25 72.712 1095.6 72.888 1096.08 73.016C1096.56 73.128 1097.32 73.256 1098.36 73.4C1099.4 73.544 1100.23 73.72 1100.85 73.928C1101.49 74.136 1101.98 74.448 1102.32 74.864C1102.67 75.264 1102.85 75.816 1102.85 76.52C1102.85 77.272 1102.65 77.928 1102.25 78.488C1101.86 79.032 1101.29 79.456 1100.52 79.76C1099.75 80.048 1098.82 80.192 1097.73 80.192Z" fill="white"/>
<path d="M1144.8 80.24C1143.37 80.24 1142.11 79.92 1141.01 79.28C1139.92 78.624 1139.07 77.688 1138.46 76.472C1137.87 75.24 1137.57 73.792 1137.57 72.128C1137.57 70.448 1137.87 69 1138.46 67.784C1139.07 66.552 1139.92 65.608 1141.01 64.952C1142.09 64.296 1143.36 63.968 1144.8 63.968C1146.03 63.968 1147.12 64.216 1148.06 64.712C1149.02 65.208 1149.77 65.912 1150.29 66.824C1150.84 67.72 1151.11 68.776 1151.11 69.992C1151.11 70.248 1151.1 70.512 1151.09 70.784H1149.26C1149.26 70.592 1149.26 70.368 1149.26 70.112C1149.26 69.248 1149.07 68.488 1148.69 67.832C1148.3 67.176 1147.77 66.672 1147.1 66.32C1146.43 65.968 1145.66 65.792 1144.8 65.792C1143.77 65.792 1142.86 66.048 1142.06 66.56C1141.26 67.056 1140.64 67.784 1140.19 68.744C1139.76 69.688 1139.54 70.816 1139.54 72.128C1139.54 73.408 1139.77 74.528 1140.21 75.488C1140.68 76.432 1141.31 77.16 1142.11 77.672C1142.91 78.168 1143.81 78.416 1144.8 78.416C1145.66 78.416 1146.44 78.248 1147.13 77.912C1147.81 77.576 1148.35 77.096 1148.73 76.472C1149.13 75.832 1149.33 75.096 1149.33 74.264C1149.33 74.12 1149.33 73.976 1149.33 73.832H1151.18C1151.18 74.008 1151.18 74.184 1151.18 74.36C1151.18 75.528 1150.91 76.56 1150.37 77.456C1149.82 78.352 1149.06 79.04 1148.09 79.52C1147.13 80 1146.03 80.24 1144.8 80.24ZM1159.08 80.192C1157.93 80.192 1156.93 79.952 1156.08 79.472C1155.25 78.976 1154.61 78.272 1154.16 77.36C1153.71 76.432 1153.49 75.344 1153.49 74.096C1153.49 72.848 1153.71 71.76 1154.16 70.832C1154.61 69.904 1155.25 69.192 1156.1 68.696C1156.95 68.2 1157.94 67.952 1159.08 67.952C1160.23 67.952 1161.22 68.2 1162.05 68.696C1162.9 69.192 1163.55 69.904 1164 70.832C1164.45 71.76 1164.67 72.848 1164.67 74.096C1164.67 75.344 1164.45 76.432 1164 77.36C1163.55 78.272 1162.9 78.976 1162.05 79.472C1161.21 79.952 1160.21 80.192 1159.08 80.192ZM1159.08 78.488C1159.85 78.488 1160.5 78.312 1161.05 77.96C1161.61 77.608 1162.03 77.104 1162.32 76.448C1162.62 75.776 1162.77 74.984 1162.77 74.072C1162.77 73.16 1162.62 72.376 1162.32 71.72C1162.03 71.048 1161.61 70.536 1161.05 70.184C1160.5 69.832 1159.85 69.656 1159.08 69.656C1158.33 69.656 1157.67 69.832 1157.11 70.184C1156.57 70.536 1156.14 71.048 1155.84 71.72C1155.53 72.392 1155.38 73.184 1155.38 74.096C1155.38 74.992 1155.53 75.776 1155.84 76.448C1156.14 77.104 1156.57 77.608 1157.11 77.96C1157.65 78.312 1158.31 78.488 1159.08 78.488ZM1167.33 68.144H1169.22L1169.15 71.24H1169.17C1169.49 70.2 1170.05 69.392 1170.83 68.816C1171.61 68.24 1172.65 67.952 1173.93 67.952C1175.37 67.952 1176.49 68.352 1177.29 69.152C1178.1 69.952 1178.51 71.04 1178.51 72.416V80H1176.61V72.776C1176.61 72.136 1176.49 71.584 1176.25 71.12C1176.03 70.64 1175.66 70.28 1175.15 70.04C1174.65 69.784 1174.03 69.656 1173.28 69.656C1172.46 69.656 1171.75 69.832 1171.14 70.184C1170.53 70.52 1170.06 71.016 1169.73 71.672C1169.39 72.328 1169.22 73.104 1169.22 74V80H1167.33V68.144ZM1185.97 80.096C1184.63 80.096 1183.63 79.712 1182.99 78.944C1182.37 78.16 1182.06 77.096 1182.06 75.752V69.8H1180.19V68.144H1181.67C1181.87 68.144 1182 68.088 1182.08 67.976C1182.18 67.848 1182.23 67.632 1182.25 67.328L1182.32 65.456H1183.93V68.144H1187.99V69.8H1183.93V75.632C1183.93 76.24 1184 76.752 1184.15 77.168C1184.29 77.568 1184.52 77.88 1184.84 78.104C1185.18 78.328 1185.62 78.44 1186.16 78.44C1186.53 78.44 1186.87 78.416 1187.19 78.368C1187.51 78.32 1187.75 78.272 1187.89 78.224V79.832C1187.7 79.896 1187.43 79.952 1187.1 80C1186.76 80.064 1186.39 80.096 1185.97 80.096ZM1189.6 76.64C1189.6 76.032 1189.75 75.496 1190.04 75.032C1190.32 74.552 1190.77 74.176 1191.38 73.904C1192 73.632 1192.79 73.496 1193.73 73.496H1198.05V72.512C1198.05 71.84 1197.93 71.288 1197.69 70.856C1197.47 70.424 1197.11 70.104 1196.61 69.896C1196.13 69.672 1195.52 69.56 1194.79 69.56C1193.8 69.56 1193.04 69.76 1192.51 70.16C1192 70.56 1191.74 71.152 1191.74 71.936C1191.74 72.112 1191.75 72.288 1191.76 72.464H1190.01C1190 72.208 1189.98 71.952 1189.96 71.696C1189.96 70.912 1190.16 70.248 1190.54 69.704C1190.94 69.144 1191.5 68.712 1192.22 68.408C1192.96 68.104 1193.83 67.952 1194.84 67.952C1195.92 67.952 1196.84 68.136 1197.6 68.504C1198.36 68.872 1198.95 69.408 1199.35 70.112C1199.75 70.8 1199.95 71.64 1199.95 72.632V80H1198.05C1198.07 79.632 1198.08 79.224 1198.1 78.776C1198.12 78.328 1198.13 77.832 1198.15 77.288H1198.12C1198 77.896 1197.75 78.416 1197.38 78.848C1197.03 79.28 1196.55 79.616 1195.94 79.856C1195.33 80.08 1194.59 80.192 1193.71 80.192C1192.88 80.192 1192.15 80.048 1191.52 79.76C1190.92 79.472 1190.44 79.064 1190.11 78.536C1189.77 77.992 1189.6 77.36 1189.6 76.64ZM1194.09 78.584C1194.89 78.584 1195.59 78.448 1196.18 78.176C1196.79 77.888 1197.25 77.48 1197.57 76.952C1197.89 76.424 1198.05 75.792 1198.05 75.056V74.864H1193.9C1193.31 74.864 1192.83 74.928 1192.46 75.056C1192.09 75.184 1191.82 75.384 1191.64 75.656C1191.47 75.912 1191.38 76.232 1191.38 76.616C1191.38 77.224 1191.62 77.704 1192.1 78.056C1192.58 78.408 1193.24 78.584 1194.09 78.584ZM1207.75 80.192C1206.66 80.192 1205.72 79.952 1204.92 79.472C1204.14 78.976 1203.53 78.272 1203.1 77.36C1202.68 76.432 1202.47 75.336 1202.47 74.072C1202.47 72.808 1202.69 71.72 1203.12 70.808C1203.55 69.88 1204.18 69.176 1204.99 68.696C1205.81 68.2 1206.77 67.952 1207.87 67.952C1208.86 67.952 1209.73 68.152 1210.46 68.552C1211.2 68.936 1211.76 69.504 1212.14 70.256C1212.54 71.008 1212.74 71.896 1212.74 72.92H1210.99C1210.99 72.232 1210.86 71.648 1210.61 71.168C1210.35 70.688 1209.99 70.32 1209.53 70.064C1209.08 69.792 1208.54 69.656 1207.9 69.656C1207.18 69.656 1206.54 69.832 1206 70.184C1205.47 70.536 1205.06 71.048 1204.78 71.72C1204.5 72.376 1204.37 73.16 1204.37 74.072C1204.37 74.984 1204.5 75.776 1204.78 76.448C1205.06 77.104 1205.46 77.608 1205.98 77.96C1206.49 78.312 1207.1 78.488 1207.8 78.488C1208.46 78.488 1209.02 78.36 1209.5 78.104C1210 77.848 1210.38 77.48 1210.63 77C1210.89 76.52 1211.02 75.944 1211.02 75.272H1212.77C1212.77 76.28 1212.57 77.152 1212.17 77.888C1211.77 78.624 1211.18 79.192 1210.42 79.592C1209.66 79.992 1208.78 80.192 1207.75 80.192ZM1219.72 80.096C1218.38 80.096 1217.38 79.712 1216.74 78.944C1216.12 78.16 1215.81 77.096 1215.81 75.752V69.8H1213.94V68.144H1215.42C1215.62 68.144 1215.75 68.088 1215.83 67.976C1215.93 67.848 1215.98 67.632 1216 67.328L1216.07 65.456H1217.68V68.144H1221.74V69.8H1217.68V75.632C1217.68 76.24 1217.75 76.752 1217.9 77.168C1218.04 77.568 1218.27 77.88 1218.59 78.104C1218.93 78.328 1219.37 78.44 1219.91 78.44C1220.28 78.44 1220.62 78.416 1220.94 78.368C1221.26 78.32 1221.5 78.272 1221.64 78.224V79.832C1221.45 79.896 1221.18 79.952 1220.85 80C1220.51 80.064 1220.14 80.096 1219.72 80.096Z" fill="white"/>
<rect x="1255.5" y="36.5" width="248" height="71" stroke="#FDCA40"/>
<path d="M1294.06 80.24C1292.58 80.24 1291.41 79.992 1290.53 79.496C1289.66 79 1289.06 78.344 1288.7 77.528C1288.35 76.696 1288.17 75.736 1288.15 74.648V74.6H1290C1290 75.448 1290.13 76.16 1290.38 76.736C1290.66 77.312 1291.09 77.752 1291.68 78.056C1292.29 78.36 1293.08 78.512 1294.06 78.512C1295.08 78.512 1295.9 78.392 1296.5 78.152C1297.11 77.896 1297.54 77.56 1297.8 77.144C1298.07 76.712 1298.21 76.224 1298.21 75.68C1298.21 75.12 1298.09 74.688 1297.85 74.384C1297.61 74.08 1297.18 73.832 1296.55 73.64C1295.93 73.432 1294.95 73.208 1293.62 72.968C1292.26 72.728 1291.2 72.464 1290.43 72.176C1289.66 71.872 1289.08 71.448 1288.68 70.904C1288.3 70.344 1288.1 69.592 1288.1 68.648C1288.1 67.736 1288.35 66.928 1288.85 66.224C1289.34 65.52 1290.03 64.968 1290.91 64.568C1291.81 64.168 1292.83 63.968 1293.98 63.968C1295.36 63.968 1296.46 64.184 1297.3 64.616C1298.13 65.032 1298.74 65.664 1299.12 66.512C1299.5 67.344 1299.7 68.408 1299.7 69.704H1297.85C1297.85 68.76 1297.7 67.992 1297.42 67.4C1297.13 66.808 1296.7 66.376 1296.12 66.104C1295.56 65.832 1294.87 65.696 1294.06 65.696C1293.29 65.696 1292.6 65.808 1291.99 66.032C1291.4 66.256 1290.94 66.584 1290.6 67.016C1290.26 67.448 1290.1 67.936 1290.1 68.48C1290.1 69.104 1290.21 69.584 1290.43 69.92C1290.67 70.256 1291.1 70.536 1291.73 70.76C1292.35 70.968 1293.32 71.184 1294.63 71.408C1295.99 71.632 1297.06 71.896 1297.85 72.2C1298.63 72.488 1299.22 72.896 1299.6 73.424C1300 73.936 1300.2 74.648 1300.2 75.56C1300.2 76.44 1300 77.232 1299.6 77.936C1299.22 78.624 1298.57 79.184 1297.66 79.616C1296.74 80.032 1295.54 80.24 1294.06 80.24ZM1307.37 80.096C1306.02 80.096 1305.03 79.712 1304.39 78.944C1303.77 78.16 1303.46 77.096 1303.46 75.752V69.8H1301.58V68.144H1303.07C1303.26 68.144 1303.4 68.088 1303.48 67.976C1303.58 67.848 1303.63 67.632 1303.65 67.328L1303.72 65.456H1305.33V68.144H1309.38V69.8H1305.33V75.632C1305.33 76.24 1305.4 76.752 1305.54 77.168C1305.69 77.568 1305.92 77.88 1306.24 78.104C1306.58 78.328 1307.02 78.44 1307.56 78.44C1307.93 78.44 1308.27 78.416 1308.59 78.368C1308.91 78.32 1309.14 78.272 1309.29 78.224V79.832C1309.1 79.896 1308.83 79.952 1308.5 80C1308.16 80.064 1307.78 80.096 1307.37 80.096ZM1311 76.64C1311 76.032 1311.15 75.496 1311.43 75.032C1311.72 74.552 1312.17 74.176 1312.78 73.904C1313.4 73.632 1314.19 73.496 1315.13 73.496H1319.45V72.512C1319.45 71.84 1319.33 71.288 1319.09 70.856C1318.87 70.424 1318.51 70.104 1318.01 69.896C1317.53 69.672 1316.92 69.56 1316.19 69.56C1315.19 69.56 1314.43 69.76 1313.91 70.16C1313.39 70.56 1313.14 71.152 1313.14 71.936C1313.14 72.112 1313.15 72.288 1313.16 72.464H1311.41C1311.39 72.208 1311.38 71.952 1311.36 71.696C1311.36 70.912 1311.55 70.248 1311.94 69.704C1312.34 69.144 1312.9 68.712 1313.62 68.408C1314.35 68.104 1315.23 67.952 1316.23 67.952C1317.32 67.952 1318.24 68.136 1318.99 68.504C1319.76 68.872 1320.35 69.408 1320.75 70.112C1321.15 70.8 1321.35 71.64 1321.35 72.632V80H1319.45C1319.47 79.632 1319.48 79.224 1319.5 78.776C1319.51 78.328 1319.53 77.832 1319.55 77.288H1319.52C1319.39 77.896 1319.15 78.416 1318.78 78.848C1318.43 79.28 1317.95 79.616 1317.34 79.856C1316.73 80.08 1315.99 80.192 1315.11 80.192C1314.27 80.192 1313.55 80.048 1312.92 79.76C1312.31 79.472 1311.84 79.064 1311.51 78.536C1311.17 77.992 1311 77.36 1311 76.64ZM1315.49 78.584C1316.29 78.584 1316.99 78.448 1317.58 78.176C1318.19 77.888 1318.65 77.48 1318.97 76.952C1319.29 76.424 1319.45 75.792 1319.45 75.056V74.864H1315.3C1314.71 74.864 1314.23 74.928 1313.86 75.056C1313.49 75.184 1313.22 75.384 1313.04 75.656C1312.87 75.912 1312.78 76.232 1312.78 76.616C1312.78 77.224 1313.02 77.704 1313.5 78.056C1313.98 78.408 1314.64 78.584 1315.49 78.584ZM1325.66 84.944C1325.37 84.944 1325.07 84.912 1324.75 84.848C1324.44 84.8 1324.2 84.736 1324.03 84.656V83.048C1324.2 83.112 1324.41 83.168 1324.65 83.216C1324.89 83.264 1325.14 83.288 1325.4 83.288C1325.78 83.288 1326.11 83.208 1326.38 83.048C1326.67 82.888 1326.93 82.6 1327.17 82.184C1327.41 81.784 1327.68 81.184 1327.99 80.384C1328.02 80.32 1328.04 80.256 1328.06 80.192C1328.09 80.128 1328.12 80.064 1328.13 80H1327.63L1322.71 68.144H1324.92L1328.85 78.032H1328.9L1332.38 68.144H1334.28L1329.96 80.216C1329.51 81.496 1329.09 82.464 1328.71 83.12C1328.34 83.776 1327.92 84.24 1327.46 84.512C1327 84.8 1326.4 84.944 1325.66 84.944ZM1347.86 80.24C1346.62 80.24 1345.52 80.008 1344.58 79.544C1343.65 79.064 1342.93 78.384 1342.42 77.504C1341.92 76.624 1341.67 75.6 1341.67 74.432V64.208H1343.66V74.456C1343.66 75.272 1343.83 75.976 1344.17 76.568C1344.52 77.16 1345.02 77.616 1345.66 77.936C1346.31 78.256 1347.07 78.416 1347.94 78.416C1348.82 78.416 1349.58 78.256 1350.22 77.936C1350.87 77.616 1351.37 77.16 1351.7 76.568C1352.06 75.976 1352.23 75.272 1352.23 74.456V64.208H1354.03V74.432C1354.03 75.6 1353.78 76.624 1353.26 77.504C1352.77 78.384 1352.06 79.064 1351.13 79.544C1350.22 80.008 1349.13 80.24 1347.86 80.24ZM1357.3 68.144H1359.18L1359.13 71.096H1359.15C1359.3 70.456 1359.56 69.904 1359.94 69.44C1360.34 68.96 1360.84 68.592 1361.43 68.336C1362.04 68.08 1362.74 67.952 1363.52 67.952C1364.58 67.952 1365.49 68.192 1366.26 68.672C1367.04 69.136 1367.63 69.816 1368.03 70.712C1368.45 71.608 1368.66 72.664 1368.66 73.88C1368.66 75.176 1368.45 76.296 1368.03 77.24C1367.62 78.184 1367.02 78.912 1366.23 79.424C1365.46 79.936 1364.54 80.192 1363.47 80.192C1362.72 80.192 1362.04 80.08 1361.43 79.856C1360.84 79.616 1360.35 79.288 1359.97 78.872C1359.58 78.456 1359.3 77.976 1359.13 77.432H1359.1C1359.12 77.816 1359.14 78.216 1359.15 78.632C1359.17 79.096 1359.18 79.568 1359.18 80.048V84.704H1357.3V68.144ZM1363.18 78.488C1363.9 78.488 1364.54 78.304 1365.08 77.936C1365.62 77.552 1366.04 77.024 1366.33 76.352C1366.62 75.664 1366.76 74.848 1366.76 73.904C1366.76 73.04 1366.62 72.288 1366.33 71.648C1366.04 71.008 1365.62 70.52 1365.06 70.184C1364.51 69.832 1363.87 69.656 1363.14 69.656C1362.35 69.656 1361.66 69.832 1361.07 70.184C1360.48 70.536 1360.02 71.04 1359.68 71.696C1359.36 72.336 1359.19 73.104 1359.18 74V74.768C1359.18 75.52 1359.34 76.176 1359.66 76.736C1359.99 77.296 1360.46 77.728 1361.05 78.032C1361.66 78.336 1362.37 78.488 1363.18 78.488ZM1376.07 80.192C1375.03 80.192 1374.12 79.936 1373.33 79.424C1372.55 78.912 1371.94 78.192 1371.51 77.264C1371.08 76.32 1370.86 75.224 1370.86 73.976C1370.86 72.776 1371.08 71.72 1371.51 70.808C1371.96 69.896 1372.58 69.192 1373.38 68.696C1374.2 68.2 1375.15 67.952 1376.24 67.952C1376.99 67.952 1377.65 68.056 1378.21 68.264C1378.77 68.456 1379.22 68.736 1379.57 69.104C1379.93 69.472 1380.17 69.912 1380.29 70.424H1380.32V63.392H1382.21V80H1380.32C1380.37 79.2 1380.41 78.168 1380.44 76.904H1380.39C1380.25 77.592 1379.99 78.184 1379.62 78.68C1379.25 79.16 1378.77 79.536 1378.18 79.808C1377.59 80.064 1376.89 80.192 1376.07 80.192ZM1376.41 78.488C1377.19 78.488 1377.88 78.312 1378.47 77.96C1379.06 77.608 1379.52 77.112 1379.84 76.472C1380.16 75.832 1380.32 75.088 1380.32 74.24V73.592C1380.32 72.792 1380.16 72.096 1379.84 71.504C1379.52 70.912 1379.06 70.456 1378.47 70.136C1377.89 69.816 1377.21 69.656 1376.43 69.656C1375.71 69.656 1375.07 69.84 1374.51 70.208C1373.95 70.56 1373.52 71.064 1373.21 71.72C1372.91 72.376 1372.76 73.128 1372.76 73.976C1372.76 74.904 1372.91 75.704 1373.21 76.376C1373.52 77.048 1373.94 77.568 1374.49 77.936C1375.03 78.304 1375.67 78.488 1376.41 78.488ZM1384.95 76.64C1384.95 76.032 1385.09 75.496 1385.38 75.032C1385.67 74.552 1386.12 74.176 1386.72 73.904C1387.35 73.632 1388.13 73.496 1389.08 73.496H1393.4V72.512C1393.4 71.84 1393.28 71.288 1393.04 70.856C1392.81 70.424 1392.45 70.104 1391.96 69.896C1391.48 69.672 1390.87 69.56 1390.13 69.56C1389.14 69.56 1388.38 69.76 1387.85 70.16C1387.34 70.56 1387.08 71.152 1387.08 71.936C1387.08 72.112 1387.09 72.288 1387.11 72.464H1385.36C1385.34 72.208 1385.32 71.952 1385.31 71.696C1385.31 70.912 1385.5 70.248 1385.88 69.704C1386.28 69.144 1386.84 68.712 1387.56 68.408C1388.3 68.104 1389.17 67.952 1390.18 67.952C1391.27 67.952 1392.19 68.136 1392.94 68.504C1393.71 68.872 1394.29 69.408 1394.69 70.112C1395.09 70.8 1395.29 71.64 1395.29 72.632V80H1393.4C1393.41 79.632 1393.43 79.224 1393.44 78.776C1393.46 78.328 1393.48 77.832 1393.49 77.288H1393.47C1393.34 77.896 1393.09 78.416 1392.72 78.848C1392.37 79.28 1391.89 79.616 1391.28 79.856C1390.68 80.08 1389.93 80.192 1389.05 80.192C1388.22 80.192 1387.49 80.048 1386.87 79.76C1386.26 79.472 1385.79 79.064 1385.45 78.536C1385.12 77.992 1384.95 77.36 1384.95 76.64ZM1389.44 78.584C1390.24 78.584 1390.93 78.448 1391.52 78.176C1392.13 77.888 1392.6 77.48 1392.92 76.952C1393.24 76.424 1393.4 75.792 1393.4 75.056V74.864H1389.24C1388.65 74.864 1388.17 74.928 1387.8 75.056C1387.44 75.184 1387.16 75.384 1386.99 75.656C1386.81 75.912 1386.72 76.232 1386.72 76.616C1386.72 77.224 1386.96 77.704 1387.44 78.056C1387.92 78.408 1388.59 78.584 1389.44 78.584ZM1402.76 80.096C1401.41 80.096 1400.42 79.712 1399.78 78.944C1399.16 78.16 1398.85 77.096 1398.85 75.752V69.8H1396.97V68.144H1398.46C1398.65 68.144 1398.79 68.088 1398.87 67.976C1398.97 67.848 1399.02 67.632 1399.04 67.328L1399.11 65.456H1400.72V68.144H1404.77V69.8H1400.72V75.632C1400.72 76.24 1400.79 76.752 1400.93 77.168C1401.08 77.568 1401.31 77.88 1401.63 78.104C1401.97 78.328 1402.41 78.44 1402.95 78.44C1403.32 78.44 1403.66 78.416 1403.98 78.368C1404.3 78.32 1404.53 78.272 1404.68 78.224V79.832C1404.49 79.896 1404.22 79.952 1403.89 80C1403.55 80.064 1403.17 80.096 1402.76 80.096ZM1411.75 80.192C1410.63 80.192 1409.65 79.944 1408.82 79.448C1408 78.952 1407.37 78.256 1406.92 77.36C1406.49 76.448 1406.28 75.384 1406.28 74.168C1406.28 72.888 1406.5 71.784 1406.95 70.856C1407.4 69.912 1408.03 69.192 1408.84 68.696C1409.66 68.2 1410.62 67.952 1411.72 67.952C1412.76 67.952 1413.66 68.168 1414.41 68.6C1415.16 69.032 1415.73 69.664 1416.12 70.496C1416.52 71.328 1416.72 72.344 1416.72 73.544V74.432H1406.95L1406.97 73.064H1414.96V72.92C1414.96 72.2 1414.84 71.592 1414.58 71.096C1414.32 70.584 1413.96 70.2 1413.48 69.944C1413.01 69.688 1412.44 69.56 1411.75 69.56C1411.01 69.56 1410.37 69.736 1409.83 70.088C1409.3 70.424 1408.89 70.936 1408.6 71.624C1408.32 72.312 1408.17 73.16 1408.17 74.168C1408.17 75.064 1408.32 75.848 1408.6 76.52C1408.91 77.192 1409.32 77.704 1409.85 78.056C1410.4 78.408 1411.04 78.584 1411.77 78.584C1412.38 78.584 1412.91 78.48 1413.36 78.272C1413.82 78.064 1414.19 77.768 1414.46 77.384C1414.75 76.984 1414.92 76.512 1414.96 75.968H1416.72C1416.68 76.832 1416.45 77.584 1416.02 78.224C1415.6 78.848 1415.03 79.336 1414.29 79.688C1413.56 80.024 1412.71 80.192 1411.75 80.192ZM1424.12 80.192C1423.08 80.192 1422.16 79.936 1421.38 79.424C1420.6 78.912 1419.99 78.192 1419.56 77.264C1419.12 76.32 1418.91 75.224 1418.91 73.976C1418.91 72.776 1419.12 71.72 1419.56 70.808C1420 69.896 1420.63 69.192 1421.43 68.696C1422.24 68.2 1423.2 67.952 1424.28 67.952C1425.04 67.952 1425.69 68.056 1426.25 68.264C1426.81 68.456 1427.27 68.736 1427.62 69.104C1427.97 69.472 1428.21 69.912 1428.34 70.424H1428.36V63.392H1430.26V80H1428.36C1428.41 79.2 1428.45 78.168 1428.48 76.904H1428.44C1428.29 77.592 1428.04 78.184 1427.67 78.68C1427.3 79.16 1426.82 79.536 1426.23 79.808C1425.64 80.064 1424.93 80.192 1424.12 80.192ZM1424.45 78.488C1425.24 78.488 1425.92 78.312 1426.52 77.96C1427.11 77.608 1427.56 77.112 1427.88 76.472C1428.2 75.832 1428.36 75.088 1428.36 74.24V73.592C1428.36 72.792 1428.2 72.096 1427.88 71.504C1427.56 70.912 1427.11 70.456 1426.52 70.136C1425.94 69.816 1425.26 69.656 1424.48 69.656C1423.76 69.656 1423.12 69.84 1422.56 70.208C1422 70.56 1421.56 71.064 1421.26 71.72C1420.96 72.376 1420.8 73.128 1420.8 73.976C1420.8 74.904 1420.96 75.704 1421.26 76.376C1421.56 77.048 1421.99 77.568 1422.53 77.936C1423.08 78.304 1423.72 78.488 1424.45 78.488Z" fill="#E6E8E6"/>
<path d="M1452.7 64.8C1451.43 64.8 1450.4 65.8313 1450.4 67.1025C1450.4 67.1363 1450.4 67.1663 1450.4 67.2H1450.4V76.8C1450.4 78.1238 1451.48 79.2 1452.8 79.2H1467.2C1468.52 79.2 1469.6 78.1238 1469.6 76.8V67.2H1469.6C1469.6 67.1663 1469.6 67.1363 1469.6 67.1025C1469.6 65.8313 1468.57 64.8 1467.3 64.8H1452.7ZM1467.8 69.6113V76.8C1467.8 77.13 1467.53 77.4 1467.2 77.4H1452.8C1452.47 77.4 1452.2 77.13 1452.2 76.8V69.6113L1458 74.0138C1459.18 74.91 1460.81 74.91 1461.99 74.0138L1467.8 69.6113ZM1452.2 67.1025C1452.2 66.825 1452.42 66.6 1452.7 66.6H1467.3C1467.57 66.6 1467.8 66.825 1467.8 67.1025C1467.8 67.26 1467.72 67.41 1467.6 67.5038L1460.91 72.5813C1460.37 72.9863 1459.63 72.9863 1459.09 72.5813L1452.4 67.5038C1452.27 67.41 1452.2 67.26 1452.2 67.1025Z" fill="#E6E8E6"/>
</g>
<defs>
<clipPath id="clip0_254_1478">
<rect width="686" height="72" fill="white" transform="translate(818 36)"/>
</clipPath>
</defs>
</svg>
