<svg width="102" height="96" viewBox="0 0 102 96" fill="none" xmlns="http://www.w3.org/2000/svg">
<rect x="27.0951" y="1.72649" width="9.23145" height="9.23145" rx="4.61572" fill="#DF2935"/>
<rect x="27.0951" y="1.72649" width="9.23145" height="9.23145" rx="4.61572" stroke="#DF2935" stroke-width="3.45298"/>
<rect x="39.7797" y="1.72649" width="9.23145" height="9.23145" rx="4.61572" fill="#DF2935"/>
<rect x="39.7797" y="1.72649" width="9.23145" height="9.23145" rx="4.61572" stroke="#DF2935" stroke-width="3.45298"/>
<rect x="52.4643" y="1.72649" width="9.23145" height="9.23145" rx="4.61572" fill="#DF2935"/>
<rect x="52.4643" y="1.72649" width="9.23145" height="9.23145" rx="4.61572" stroke="#DF2935" stroke-width="3.45298"/>
<rect x="1.72649" y="14.4109" width="9.23145" height="9.23145" rx="4.61572" fill="#DF2935"/>
<rect x="1.72649" y="14.4109" width="9.23145" height="9.23145" rx="4.61572" stroke="#DF2935" stroke-width="3.45298"/>
<rect x="14.4111" y="14.4109" width="9.23145" height="9.23145" rx="4.61572" fill="#DF2935"/>
<rect x="14.4111" y="14.4109" width="9.23145" height="9.23145" rx="4.61572" stroke="#DF2935" stroke-width="3.45298"/>
<rect x="27.0951" y="14.4109" width="9.23145" height="9.23145" rx="4.61572" fill="#DF2935"/>
<rect x="27.0951" y="14.4109" width="9.23145" height="9.23145" rx="4.61572" stroke="#DF2935" stroke-width="3.45298"/>
<rect x="39.7797" y="14.4109" width="9.23145" height="9.23145" rx="4.61572" fill="#DF2935"/>
<rect x="39.7797" y="14.4109" width="9.23145" height="9.23145" rx="4.61572" stroke="#DF2935" stroke-width="3.45298"/>
<rect x="52.4643" y="14.4109" width="9.23145" height="9.23145" rx="4.61572" fill="#DF2935"/>
<rect x="52.4643" y="14.4109" width="9.23145" height="9.23145" rx="4.61572" stroke="#DF2935" stroke-width="3.45298"/>
<rect x="65.1489" y="14.4109" width="9.23145" height="9.23145" rx="4.61572" fill="#DF2935"/>
<rect x="65.1489" y="14.4109" width="9.23145" height="9.23145" rx="4.61572" stroke="#DF2935" stroke-width="3.45298"/>
<rect x="77.8329" y="14.4109" width="9.23145" height="9.23145" rx="4.61572" fill="#DF2935"/>
<rect x="77.8329" y="14.4109" width="9.23145" height="9.23145" rx="4.61572" stroke="#DF2935" stroke-width="3.45298"/>
<rect x="1.72649" y="27.0954" width="9.23145" height="9.23145" rx="4.61572" fill="#DF2935"/>
<rect x="1.72649" y="27.0954" width="9.23145" height="9.23145" rx="4.61572" stroke="#DF2935" stroke-width="3.45298"/>
<rect x="14.4111" y="27.0954" width="9.23145" height="9.23145" rx="4.61572" fill="#DF2935"/>
<rect x="14.4111" y="27.0954" width="9.23145" height="9.23145" rx="4.61572" stroke="#DF2935" stroke-width="3.45298"/>
<rect x="27.0951" y="27.0954" width="9.23145" height="9.23145" rx="4.61572" fill="#DF2935"/>
<rect x="27.0951" y="27.0954" width="9.23145" height="9.23145" rx="4.61572" stroke="#DF2935" stroke-width="3.45298"/>
<rect x="39.7797" y="27.0954" width="9.23145" height="9.23145" rx="4.61572" fill="#DF2935"/>
<rect x="39.7797" y="27.0954" width="9.23145" height="9.23145" rx="4.61572" stroke="#DF2935" stroke-width="3.45298"/>
<rect x="52.4643" y="27.0954" width="9.23145" height="9.23145" rx="4.61572" fill="#DF2935"/>
<rect x="52.4643" y="27.0954" width="9.23145" height="9.23145" rx="4.61572" stroke="#DF2935" stroke-width="3.45298"/>
<rect x="65.1489" y="27.0954" width="9.23145" height="9.23145" rx="4.61572" fill="#DF2935"/>
<rect x="65.1489" y="27.0954" width="9.23145" height="9.23145" rx="4.61572" stroke="#DF2935" stroke-width="3.45298"/>
<rect x="77.8329" y="27.0954" width="9.23145" height="9.23145" rx="4.61572" fill="#DF2935"/>
<rect x="77.8329" y="27.0954" width="9.23145" height="9.23145" rx="4.61572" stroke="#DF2935" stroke-width="3.45298"/>
<rect x="90.5175" y="27.0954" width="9.23145" height="9.23145" rx="4.61572" fill="#DF2935"/>
<rect x="90.5175" y="27.0954" width="9.23145" height="9.23145" rx="4.61572" stroke="#DF2935" stroke-width="3.45298"/>
<rect x="1.72649" y="39.7798" width="9.23145" height="9.23145" rx="4.61572" fill="#DF2935"/>
<rect x="1.72649" y="39.7798" width="9.23145" height="9.23145" rx="4.61572" stroke="#DF2935" stroke-width="3.45298"/>
<rect x="14.4111" y="39.7798" width="9.23145" height="9.23145" rx="4.61572" fill="#DF2935"/>
<rect x="14.4111" y="39.7798" width="9.23145" height="9.23145" rx="4.61572" stroke="#DF2935" stroke-width="3.45298"/>
<rect x="27.0951" y="39.7798" width="9.23145" height="9.23145" rx="4.61572" fill="#DF2935"/>
<rect x="27.0951" y="39.7798" width="9.23145" height="9.23145" rx="4.61572" stroke="#DF2935" stroke-width="3.45298"/>
<rect x="39.7797" y="39.7798" width="9.23145" height="9.23145" rx="4.61572" fill="#DF2935"/>
<rect x="39.7797" y="39.7798" width="9.23145" height="9.23145" rx="4.61572" stroke="#DF2935" stroke-width="3.45298"/>
<rect x="52.4643" y="39.7798" width="9.23145" height="9.23145" rx="4.61572" fill="#DF2935"/>
<rect x="52.4643" y="39.7798" width="9.23145" height="9.23145" rx="4.61572" stroke="#DF2935" stroke-width="3.45298"/>
<rect x="65.1489" y="39.7798" width="9.23145" height="9.23145" rx="4.61572" fill="#DF2935"/>
<rect x="65.1489" y="39.7798" width="9.23145" height="9.23145" rx="4.61572" stroke="#DF2935" stroke-width="3.45298"/>
<rect x="77.8329" y="39.7798" width="9.23145" height="9.23145" rx="4.61572" fill="#DF2935"/>
<rect x="77.8329" y="39.7798" width="9.23145" height="9.23145" rx="4.61572" stroke="#DF2935" stroke-width="3.45298"/>
<rect x="27.0951" y="52.4642" width="9.23145" height="9.23145" rx="4.61572" fill="#DF2935"/>
<rect x="27.0951" y="52.4642" width="9.23145" height="9.23145" rx="4.61572" stroke="#DF2935" stroke-width="3.45298"/>
<rect x="39.7797" y="52.4642" width="9.23145" height="9.23145" rx="4.61572" fill="#DF2935"/>
<rect x="39.7797" y="52.4642" width="9.23145" height="9.23145" rx="4.61572" stroke="#DF2935" stroke-width="3.45298"/>
<rect x="52.4643" y="52.4642" width="9.23145" height="9.23145" rx="4.61572" fill="#DF2935"/>
<rect x="52.4643" y="52.4642" width="9.23145" height="9.23145" rx="4.61572" stroke="#DF2935" stroke-width="3.45298"/>
<rect x="65.1489" y="52.4642" width="9.23145" height="9.23145" rx="4.61572" fill="#DF2935"/>
<rect x="65.1489" y="52.4642" width="9.23145" height="9.23145" rx="4.61572" stroke="#DF2935" stroke-width="3.45298"/>
<rect x="39.7797" y="65.1486" width="9.23145" height="9.23145" rx="4.61572" fill="#DF2935"/>
<rect x="39.7797" y="65.1486" width="9.23145" height="9.23145" rx="4.61572" stroke="#DF2935" stroke-width="3.45298"/>
<rect x="52.4643" y="65.1486" width="9.23145" height="9.23145" rx="4.61572" fill="#DF2935"/>
<rect x="52.4643" y="65.1486" width="9.23145" height="9.23145" rx="4.61572" stroke="#DF2935" stroke-width="3.45298"/>
<rect x="65.1489" y="65.1486" width="9.23145" height="9.23145" rx="4.61572" fill="#DF2935"/>
<rect x="65.1489" y="65.1486" width="9.23145" height="9.23145" rx="4.61572" stroke="#DF2935" stroke-width="3.45298"/>
<path d="M1.71478 95.1066V82.8763H5.2898V92.0447H10.524V95.1066H1.71478ZM17.2749 95.3974C13.4775 95.3974 11.0828 92.6947 11.0828 89.0342C11.0828 85.3736 13.4775 82.6539 17.2749 82.6539C21.0723 82.6539 23.5012 85.3736 23.5012 89.0342C23.5012 92.6947 21.0723 95.3974 17.2749 95.3974ZM17.292 92.5408C19.0025 92.5408 19.8749 91.0355 19.8749 89.0342C19.8749 87.0329 19.0025 85.5105 17.292 85.5105C15.5815 85.5105 14.7091 87.0329 14.7091 89.0342C14.7091 91.0355 15.5815 92.5408 17.292 92.5408ZM24.833 95.1066V82.8763H28.408L32.4107 89.7526H32.4449V82.8763H35.9002V95.1066H32.2054L28.3225 88.1789H28.2883V95.1066H24.833ZM37.7201 95.1066V82.8763H43.3649C46.8886 82.8763 49.3347 85.1342 49.3347 89.0171C49.3347 92.9171 47.0083 95.1066 43.211 95.1066H37.7201ZM41.2952 92.1473H42.9202C44.5623 92.1473 45.7083 91.0868 45.7083 89.0171C45.7083 86.9986 44.6307 85.8355 42.9202 85.8355H41.2952V92.1473ZM56.3873 95.3974C52.5899 95.3974 50.1951 92.6947 50.1951 89.0342C50.1951 85.3736 52.5899 82.6539 56.3873 82.6539C60.1846 82.6539 62.6136 85.3736 62.6136 89.0342C62.6136 92.6947 60.1846 95.3974 56.3873 95.3974ZM56.4044 92.5408C58.1149 92.5408 58.9873 91.0355 58.9873 89.0342C58.9873 87.0329 58.1149 85.5105 56.4044 85.5105C54.6938 85.5105 53.8215 87.0329 53.8215 89.0342C53.8215 91.0355 54.6938 92.5408 56.4044 92.5408ZM63.9454 95.1066V82.8763H67.5204L71.5231 89.7526H71.5573V82.8763H75.0125V95.1066H71.3178L67.4349 88.1789H67.4007V95.1066H63.9454ZM84.5712 95.3974C82.7923 95.3974 81.5436 95.0553 80.6541 94.3368C79.6962 93.5671 79.2001 92.421 79.2001 91.0013H82.433C82.4673 92.0789 83.083 92.8487 84.4173 92.8487C85.4949 92.8487 86.0252 92.25 86.0252 91.5145C86.0252 90.5908 85.2896 90.2316 84.1778 90.2316H83.4936V88.0079H84.0752C85.1528 88.0079 85.8199 87.6144 85.8199 86.8105C85.8199 86.1263 85.3067 85.6815 84.4002 85.6815C83.2199 85.6815 82.7923 86.4 82.7067 87.1868H79.5593C79.5593 84.8605 81.3554 83.1499 84.4515 83.1499C87.1883 83.1499 89.1383 84.3986 89.1383 86.5881C89.1383 87.6829 88.5054 88.3671 87.5646 88.8118V88.846C88.6423 89.2908 89.4462 90.146 89.4462 91.6684C89.4462 94.2684 87.0857 95.3974 84.5712 95.3974ZM90.4021 95.1066C90.4021 93.4302 90.7442 92.5237 91.7363 91.6171C92.8824 90.5737 94.5758 89.4789 95.8587 88.6065C96.5087 88.1618 96.885 87.6829 96.885 87.05C96.885 86.3144 96.4061 85.8355 95.4824 85.8355C94.9179 85.8355 94.5245 85.9894 94.2508 86.3486C93.9429 86.7421 93.8061 87.1868 93.8061 87.9565H90.5903C90.5903 86.571 90.7271 85.9723 91.1719 85.1855C91.8219 84.0223 93.31 83.1499 95.5508 83.1499C98.664 83.1499 100.255 84.775 100.255 86.9131C100.255 87.9565 99.964 88.7947 99.2969 89.4447C98.1337 90.5737 96.6456 91.2579 95.3969 92.25V92.2842H100.186V95.1066H90.4021Z" fill="#E6E8E6"/>
</svg>
