<svg width="64" height="64" viewBox="0 0 64 64" fill="none" xmlns="http://www.w3.org/2000/svg">
<rect width="64" height="64" fill="#080708"/>
<rect x="18.0568" y="10.4726" width="5.4706" height="5.4706" rx="2.7353" fill="#DF2935"/>
<rect x="18.0568" y="10.4726" width="5.4706" height="5.4706" rx="2.7353" stroke="#DF2935" stroke-width="2.04625"/>
<rect x="25.5739" y="10.4726" width="5.4706" height="5.4706" rx="2.7353" fill="#DF2935"/>
<rect x="25.5739" y="10.4726" width="5.4706" height="5.4706" rx="2.7353" stroke="#DF2935" stroke-width="2.04625"/>
<rect x="33.0905" y="10.4726" width="5.4706" height="5.4706" rx="2.7353" fill="#DF2935"/>
<rect x="33.0905" y="10.4726" width="5.4706" height="5.4706" rx="2.7353" stroke="#DF2935" stroke-width="2.04625"/>
<rect x="3.02313" y="17.9894" width="5.4706" height="5.4706" rx="2.7353" fill="#DF2935"/>
<rect x="3.02313" y="17.9894" width="5.4706" height="5.4706" rx="2.7353" stroke="#DF2935" stroke-width="2.04625"/>
<rect x="10.5402" y="17.9894" width="5.4706" height="5.4706" rx="2.7353" fill="#DF2935"/>
<rect x="10.5402" y="17.9894" width="5.4706" height="5.4706" rx="2.7353" stroke="#DF2935" stroke-width="2.04625"/>
<rect x="18.0568" y="17.9894" width="5.4706" height="5.4706" rx="2.7353" fill="#DF2935"/>
<rect x="18.0568" y="17.9894" width="5.4706" height="5.4706" rx="2.7353" stroke="#DF2935" stroke-width="2.04625"/>
<rect x="25.5739" y="17.9894" width="5.4706" height="5.4706" rx="2.7353" fill="#DF2935"/>
<rect x="25.5739" y="17.9894" width="5.4706" height="5.4706" rx="2.7353" stroke="#DF2935" stroke-width="2.04625"/>
<rect x="33.0905" y="17.9894" width="5.4706" height="5.4706" rx="2.7353" fill="#DF2935"/>
<rect x="33.0905" y="17.9894" width="5.4706" height="5.4706" rx="2.7353" stroke="#DF2935" stroke-width="2.04625"/>
<rect x="40.6076" y="17.9894" width="5.4706" height="5.4706" rx="2.7353" fill="#DF2935"/>
<rect x="40.6076" y="17.9894" width="5.4706" height="5.4706" rx="2.7353" stroke="#DF2935" stroke-width="2.04625"/>
<rect x="48.1242" y="17.9894" width="5.4706" height="5.4706" rx="2.7353" fill="#DF2935"/>
<rect x="48.1242" y="17.9894" width="5.4706" height="5.4706" rx="2.7353" stroke="#DF2935" stroke-width="2.04625"/>
<rect x="3.02313" y="25.5063" width="5.4706" height="5.4706" rx="2.7353" fill="#DF2935"/>
<rect x="3.02313" y="25.5063" width="5.4706" height="5.4706" rx="2.7353" stroke="#DF2935" stroke-width="2.04625"/>
<rect x="10.5402" y="25.5063" width="5.4706" height="5.4706" rx="2.7353" fill="#DF2935"/>
<rect x="10.5402" y="25.5063" width="5.4706" height="5.4706" rx="2.7353" stroke="#DF2935" stroke-width="2.04625"/>
<rect x="18.0568" y="25.5063" width="5.4706" height="5.4706" rx="2.7353" fill="#DF2935"/>
<rect x="18.0568" y="25.5063" width="5.4706" height="5.4706" rx="2.7353" stroke="#DF2935" stroke-width="2.04625"/>
<rect x="25.5739" y="25.5063" width="5.4706" height="5.4706" rx="2.7353" fill="#DF2935"/>
<rect x="25.5739" y="25.5063" width="5.4706" height="5.4706" rx="2.7353" stroke="#DF2935" stroke-width="2.04625"/>
<rect x="33.0905" y="25.5063" width="5.4706" height="5.4706" rx="2.7353" fill="#DF2935"/>
<rect x="33.0905" y="25.5063" width="5.4706" height="5.4706" rx="2.7353" stroke="#DF2935" stroke-width="2.04625"/>
<rect x="40.6076" y="25.5063" width="5.4706" height="5.4706" rx="2.7353" fill="#DF2935"/>
<rect x="40.6076" y="25.5063" width="5.4706" height="5.4706" rx="2.7353" stroke="#DF2935" stroke-width="2.04625"/>
<rect x="48.1242" y="25.5063" width="5.4706" height="5.4706" rx="2.7353" fill="#DF2935"/>
<rect x="48.1242" y="25.5063" width="5.4706" height="5.4706" rx="2.7353" stroke="#DF2935" stroke-width="2.04625"/>
<rect x="55.6413" y="25.5063" width="5.4706" height="5.4706" rx="2.7353" fill="#DF2935"/>
<rect x="55.6413" y="25.5063" width="5.4706" height="5.4706" rx="2.7353" stroke="#DF2935" stroke-width="2.04625"/>
<rect x="3.02313" y="33.0231" width="5.4706" height="5.4706" rx="2.7353" fill="#DF2935"/>
<rect x="3.02313" y="33.0231" width="5.4706" height="5.4706" rx="2.7353" stroke="#DF2935" stroke-width="2.04625"/>
<rect x="10.5402" y="33.0231" width="5.4706" height="5.4706" rx="2.7353" fill="#DF2935"/>
<rect x="10.5402" y="33.0231" width="5.4706" height="5.4706" rx="2.7353" stroke="#DF2935" stroke-width="2.04625"/>
<rect x="18.0568" y="33.0231" width="5.4706" height="5.4706" rx="2.7353" fill="#DF2935"/>
<rect x="18.0568" y="33.0231" width="5.4706" height="5.4706" rx="2.7353" stroke="#DF2935" stroke-width="2.04625"/>
<rect x="25.5739" y="33.0231" width="5.4706" height="5.4706" rx="2.7353" fill="#DF2935"/>
<rect x="25.5739" y="33.0231" width="5.4706" height="5.4706" rx="2.7353" stroke="#DF2935" stroke-width="2.04625"/>
<rect x="33.0905" y="33.0231" width="5.4706" height="5.4706" rx="2.7353" fill="#DF2935"/>
<rect x="33.0905" y="33.0231" width="5.4706" height="5.4706" rx="2.7353" stroke="#DF2935" stroke-width="2.04625"/>
<rect x="40.6076" y="33.0231" width="5.4706" height="5.4706" rx="2.7353" fill="#DF2935"/>
<rect x="40.6076" y="33.0231" width="5.4706" height="5.4706" rx="2.7353" stroke="#DF2935" stroke-width="2.04625"/>
<rect x="48.1242" y="33.0231" width="5.4706" height="5.4706" rx="2.7353" fill="#DF2935"/>
<rect x="48.1242" y="33.0231" width="5.4706" height="5.4706" rx="2.7353" stroke="#DF2935" stroke-width="2.04625"/>
<rect x="18.0568" y="40.54" width="5.4706" height="5.4706" rx="2.7353" fill="#DF2935"/>
<rect x="18.0568" y="40.54" width="5.4706" height="5.4706" rx="2.7353" stroke="#DF2935" stroke-width="2.04625"/>
<rect x="25.5739" y="40.54" width="5.4706" height="5.4706" rx="2.7353" fill="#DF2935"/>
<rect x="25.5739" y="40.54" width="5.4706" height="5.4706" rx="2.7353" stroke="#DF2935" stroke-width="2.04625"/>
<rect x="33.0905" y="40.54" width="5.4706" height="5.4706" rx="2.7353" fill="#DF2935"/>
<rect x="33.0905" y="40.54" width="5.4706" height="5.4706" rx="2.7353" stroke="#DF2935" stroke-width="2.04625"/>
<rect x="40.6076" y="40.54" width="5.4706" height="5.4706" rx="2.7353" fill="#DF2935"/>
<rect x="40.6076" y="40.54" width="5.4706" height="5.4706" rx="2.7353" stroke="#DF2935" stroke-width="2.04625"/>
<rect x="25.5739" y="48.0568" width="5.4706" height="5.4706" rx="2.7353" fill="#DF2935"/>
<rect x="25.5739" y="48.0568" width="5.4706" height="5.4706" rx="2.7353" stroke="#DF2935" stroke-width="2.04625"/>
<rect x="33.0905" y="48.0568" width="5.4706" height="5.4706" rx="2.7353" fill="#DF2935"/>
<rect x="33.0905" y="48.0568" width="5.4706" height="5.4706" rx="2.7353" stroke="#DF2935" stroke-width="2.04625"/>
<rect x="40.6076" y="48.0568" width="5.4706" height="5.4706" rx="2.7353" fill="#DF2935"/>
<rect x="40.6076" y="48.0568" width="5.4706" height="5.4706" rx="2.7353" stroke="#DF2935" stroke-width="2.04625"/>
</svg>
