<svg width="512" height="512" viewBox="0 0 512 512" fill="none" xmlns="http://www.w3.org/2000/svg">
<rect width="512" height="512" fill="#080708"/>
<rect x="144.455" y="83.7807" width="43.7648" height="43.7648" rx="21.8824" fill="#DF2935"/>
<rect x="144.455" y="83.7807" width="43.7648" height="43.7648" rx="21.8824" stroke="#DF2935" stroke-width="16.37"/>
<rect x="204.589" y="83.7807" width="43.7648" height="43.7648" rx="21.8824" fill="#DF2935"/>
<rect x="204.589" y="83.7807" width="43.7648" height="43.7648" rx="21.8824" stroke="#DF2935" stroke-width="16.37"/>
<rect x="264.724" y="83.7807" width="43.7648" height="43.7648" rx="21.8824" fill="#DF2935"/>
<rect x="264.724" y="83.7807" width="43.7648" height="43.7648" rx="21.8824" stroke="#DF2935" stroke-width="16.37"/>
<rect x="24.185" y="143.915" width="43.7648" height="43.7648" rx="21.8824" fill="#DF2935"/>
<rect x="24.185" y="143.915" width="43.7648" height="43.7648" rx="21.8824" stroke="#DF2935" stroke-width="16.37"/>
<rect x="84.3198" y="143.915" width="43.7648" height="43.7648" rx="21.8824" fill="#DF2935"/>
<rect x="84.3198" y="143.915" width="43.7648" height="43.7648" rx="21.8824" stroke="#DF2935" stroke-width="16.37"/>
<rect x="144.455" y="143.915" width="43.7648" height="43.7648" rx="21.8824" fill="#DF2935"/>
<rect x="144.455" y="143.915" width="43.7648" height="43.7648" rx="21.8824" stroke="#DF2935" stroke-width="16.37"/>
<rect x="204.589" y="143.915" width="43.7648" height="43.7648" rx="21.8824" fill="#DF2935"/>
<rect x="204.589" y="143.915" width="43.7648" height="43.7648" rx="21.8824" stroke="#DF2935" stroke-width="16.37"/>
<rect x="264.724" y="143.915" width="43.7648" height="43.7648" rx="21.8824" fill="#DF2935"/>
<rect x="264.724" y="143.915" width="43.7648" height="43.7648" rx="21.8824" stroke="#DF2935" stroke-width="16.37"/>
<rect x="324.859" y="143.915" width="43.7648" height="43.7648" rx="21.8824" fill="#DF2935"/>
<rect x="324.859" y="143.915" width="43.7648" height="43.7648" rx="21.8824" stroke="#DF2935" stroke-width="16.37"/>
<rect x="384.994" y="143.915" width="43.7648" height="43.7648" rx="21.8824" fill="#DF2935"/>
<rect x="384.994" y="143.915" width="43.7648" height="43.7648" rx="21.8824" stroke="#DF2935" stroke-width="16.37"/>
<rect x="24.185" y="204.05" width="43.7648" height="43.7648" rx="21.8824" fill="#DF2935"/>
<rect x="24.185" y="204.05" width="43.7648" height="43.7648" rx="21.8824" stroke="#DF2935" stroke-width="16.37"/>
<rect x="84.3198" y="204.05" width="43.7648" height="43.7648" rx="21.8824" fill="#DF2935"/>
<rect x="84.3198" y="204.05" width="43.7648" height="43.7648" rx="21.8824" stroke="#DF2935" stroke-width="16.37"/>
<rect x="144.455" y="204.05" width="43.7648" height="43.7648" rx="21.8824" fill="#DF2935"/>
<rect x="144.455" y="204.05" width="43.7648" height="43.7648" rx="21.8824" stroke="#DF2935" stroke-width="16.37"/>
<rect x="204.589" y="204.05" width="43.7648" height="43.7648" rx="21.8824" fill="#DF2935"/>
<rect x="204.589" y="204.05" width="43.7648" height="43.7648" rx="21.8824" stroke="#DF2935" stroke-width="16.37"/>
<rect x="264.724" y="204.05" width="43.7648" height="43.7648" rx="21.8824" fill="#DF2935"/>
<rect x="264.724" y="204.05" width="43.7648" height="43.7648" rx="21.8824" stroke="#DF2935" stroke-width="16.37"/>
<rect x="324.859" y="204.05" width="43.7648" height="43.7648" rx="21.8824" fill="#DF2935"/>
<rect x="324.859" y="204.05" width="43.7648" height="43.7648" rx="21.8824" stroke="#DF2935" stroke-width="16.37"/>
<rect x="384.994" y="204.05" width="43.7648" height="43.7648" rx="21.8824" fill="#DF2935"/>
<rect x="384.994" y="204.05" width="43.7648" height="43.7648" rx="21.8824" stroke="#DF2935" stroke-width="16.37"/>
<rect x="445.128" y="204.05" width="43.7648" height="43.7648" rx="21.8824" fill="#DF2935"/>
<rect x="445.128" y="204.05" width="43.7648" height="43.7648" rx="21.8824" stroke="#DF2935" stroke-width="16.37"/>
<rect x="24.185" y="264.185" width="43.7648" height="43.7648" rx="21.8824" fill="#DF2935"/>
<rect x="24.185" y="264.185" width="43.7648" height="43.7648" rx="21.8824" stroke="#DF2935" stroke-width="16.37"/>
<rect x="84.3198" y="264.185" width="43.7648" height="43.7648" rx="21.8824" fill="#DF2935"/>
<rect x="84.3198" y="264.185" width="43.7648" height="43.7648" rx="21.8824" stroke="#DF2935" stroke-width="16.37"/>
<rect x="144.455" y="264.185" width="43.7648" height="43.7648" rx="21.8824" fill="#DF2935"/>
<rect x="144.455" y="264.185" width="43.7648" height="43.7648" rx="21.8824" stroke="#DF2935" stroke-width="16.37"/>
<rect x="204.589" y="264.185" width="43.7648" height="43.7648" rx="21.8824" fill="#DF2935"/>
<rect x="204.589" y="264.185" width="43.7648" height="43.7648" rx="21.8824" stroke="#DF2935" stroke-width="16.37"/>
<rect x="264.724" y="264.185" width="43.7648" height="43.7648" rx="21.8824" fill="#DF2935"/>
<rect x="264.724" y="264.185" width="43.7648" height="43.7648" rx="21.8824" stroke="#DF2935" stroke-width="16.37"/>
<rect x="324.859" y="264.185" width="43.7648" height="43.7648" rx="21.8824" fill="#DF2935"/>
<rect x="324.859" y="264.185" width="43.7648" height="43.7648" rx="21.8824" stroke="#DF2935" stroke-width="16.37"/>
<rect x="384.994" y="264.185" width="43.7648" height="43.7648" rx="21.8824" fill="#DF2935"/>
<rect x="384.994" y="264.185" width="43.7648" height="43.7648" rx="21.8824" stroke="#DF2935" stroke-width="16.37"/>
<rect x="144.455" y="324.32" width="43.7648" height="43.7648" rx="21.8824" fill="#DF2935"/>
<rect x="144.455" y="324.32" width="43.7648" height="43.7648" rx="21.8824" stroke="#DF2935" stroke-width="16.37"/>
<rect x="204.589" y="324.32" width="43.7648" height="43.7648" rx="21.8824" fill="#DF2935"/>
<rect x="204.589" y="324.32" width="43.7648" height="43.7648" rx="21.8824" stroke="#DF2935" stroke-width="16.37"/>
<rect x="264.724" y="324.32" width="43.7648" height="43.7648" rx="21.8824" fill="#DF2935"/>
<rect x="264.724" y="324.32" width="43.7648" height="43.7648" rx="21.8824" stroke="#DF2935" stroke-width="16.37"/>
<rect x="324.859" y="324.32" width="43.7648" height="43.7648" rx="21.8824" fill="#DF2935"/>
<rect x="324.859" y="324.32" width="43.7648" height="43.7648" rx="21.8824" stroke="#DF2935" stroke-width="16.37"/>
<rect x="204.589" y="384.455" width="43.7648" height="43.7648" rx="21.8824" fill="#DF2935"/>
<rect x="204.589" y="384.455" width="43.7648" height="43.7648" rx="21.8824" stroke="#DF2935" stroke-width="16.37"/>
<rect x="264.724" y="384.455" width="43.7648" height="43.7648" rx="21.8824" fill="#DF2935"/>
<rect x="264.724" y="384.455" width="43.7648" height="43.7648" rx="21.8824" stroke="#DF2935" stroke-width="16.37"/>
<rect x="324.859" y="384.455" width="43.7648" height="43.7648" rx="21.8824" fill="#DF2935"/>
<rect x="324.859" y="384.455" width="43.7648" height="43.7648" rx="21.8824" stroke="#DF2935" stroke-width="16.37"/>
</svg>
